<mxfile host="Electron" modified="2024-04-07T23:27:58.609Z" agent="Mozilla/5.0 (X11; Linux x86_64) AppleWebKit/537.36 (KHTML, like Gecko) draw.io/21.5.0 Chrome/112.0.5615.204 Electron/24.5.1 Safari/537.36" etag="oywlKFV4Ao8UrdR8bYmB" version="21.5.0" type="device">
  <diagram name="Page-1" id="GgluT5hukFRkSTczRPJE">
    <mxGraphModel dx="1195" dy="658" grid="1" gridSize="10" guides="1" tooltips="1" connect="1" arrows="1" fold="1" page="1" pageScale="1" pageWidth="850" pageHeight="1100" math="0" shadow="0">
      <root>
        <mxCell id="0" />
        <mxCell id="1" parent="0" />
        <mxCell id="g9HrSTiueD1boIvIKJti-15" value="User Table" style="group" parent="1" vertex="1" connectable="0">
          <mxGeometry x="120" y="280" width="520" height="200" as="geometry" />
        </mxCell>
        <mxCell id="g9HrSTiueD1boIvIKJti-16" value="" style="swimlane;startSize=0;" parent="g9HrSTiueD1boIvIKJti-15" vertex="1">
          <mxGeometry width="520" height="200" as="geometry" />
        </mxCell>
        <mxCell id="zAfV5tpTax8Z2rEZmLrc-1" value="full_name" style="rounded=0;whiteSpace=wrap;html=1;" vertex="1" parent="g9HrSTiueD1boIvIKJti-16">
          <mxGeometry x="200" y="40" width="120" height="40" as="geometry" />
        </mxCell>
        <mxCell id="zAfV5tpTax8Z2rEZmLrc-2" value="pic_url" style="rounded=0;whiteSpace=wrap;html=1;" vertex="1" parent="g9HrSTiueD1boIvIKJti-16">
          <mxGeometry x="360" y="40" width="120" height="40" as="geometry" />
        </mxCell>
        <mxCell id="zAfV5tpTax8Z2rEZmLrc-6" value="full_name" style="rounded=0;whiteSpace=wrap;html=1;" vertex="1" parent="g9HrSTiueD1boIvIKJti-16">
          <mxGeometry x="200" y="120" width="120" height="40" as="geometry" />
        </mxCell>
        <mxCell id="zAfV5tpTax8Z2rEZmLrc-8" value="username" style="rounded=0;whiteSpace=wrap;html=1;" vertex="1" parent="g9HrSTiueD1boIvIKJti-16">
          <mxGeometry x="40" y="120" width="120" height="40" as="geometry" />
        </mxCell>
        <mxCell id="zAfV5tpTax8Z2rEZmLrc-7" value="pic_url" style="rounded=0;whiteSpace=wrap;html=1;" vertex="1" parent="g9HrSTiueD1boIvIKJti-16">
          <mxGeometry x="360" y="120" width="120" height="40" as="geometry" />
        </mxCell>
        <mxCell id="g9HrSTiueD1boIvIKJti-17" value="username" style="rounded=0;whiteSpace=wrap;html=1;" parent="g9HrSTiueD1boIvIKJti-15" vertex="1">
          <mxGeometry x="40" y="40" width="120" height="40" as="geometry" />
        </mxCell>
        <mxCell id="zAfV5tpTax8Z2rEZmLrc-23" style="edgeStyle=orthogonalEdgeStyle;rounded=0;orthogonalLoop=1;jettySize=auto;html=1;exitX=0;exitY=0.5;exitDx=0;exitDy=0;entryX=1;entryY=0.5;entryDx=0;entryDy=0;endArrow=none;endFill=0;dashed=1;" edge="1" parent="g9HrSTiueD1boIvIKJti-15" source="g9HrSTiueD1boIvIKJti-16" target="g9HrSTiueD1boIvIKJti-16">
          <mxGeometry relative="1" as="geometry">
            <Array as="points">
              <mxPoint x="260" y="100" />
              <mxPoint x="260" y="100" />
            </Array>
          </mxGeometry>
        </mxCell>
        <mxCell id="zAfV5tpTax8Z2rEZmLrc-9" value="Action Log Table" style="group" vertex="1" connectable="0" parent="1">
          <mxGeometry x="120" y="560" width="520" height="360" as="geometry" />
        </mxCell>
        <mxCell id="zAfV5tpTax8Z2rEZmLrc-10" value="" style="swimlane;startSize=0;" vertex="1" parent="zAfV5tpTax8Z2rEZmLrc-9">
          <mxGeometry width="520" height="360" as="geometry" />
        </mxCell>
        <mxCell id="zAfV5tpTax8Z2rEZmLrc-11" value="target_username" style="rounded=0;whiteSpace=wrap;html=1;" vertex="1" parent="zAfV5tpTax8Z2rEZmLrc-10">
          <mxGeometry x="200" y="40" width="120" height="40" as="geometry" />
        </mxCell>
        <mxCell id="zAfV5tpTax8Z2rEZmLrc-12" value="action" style="rounded=0;whiteSpace=wrap;html=1;" vertex="1" parent="zAfV5tpTax8Z2rEZmLrc-10">
          <mxGeometry x="360" y="40" width="120" height="40" as="geometry" />
        </mxCell>
        <mxCell id="zAfV5tpTax8Z2rEZmLrc-13" value="date" style="rounded=0;whiteSpace=wrap;html=1;" vertex="1" parent="zAfV5tpTax8Z2rEZmLrc-10">
          <mxGeometry x="200" y="120" width="120" height="40" as="geometry" />
        </mxCell>
        <mxCell id="zAfV5tpTax8Z2rEZmLrc-14" value="time" style="rounded=0;whiteSpace=wrap;html=1;" vertex="1" parent="zAfV5tpTax8Z2rEZmLrc-10">
          <mxGeometry x="40" y="120" width="120" height="40" as="geometry" />
        </mxCell>
        <mxCell id="zAfV5tpTax8Z2rEZmLrc-17" value="target_username" style="rounded=0;whiteSpace=wrap;html=1;" vertex="1" parent="zAfV5tpTax8Z2rEZmLrc-10">
          <mxGeometry x="200" y="200" width="120" height="40" as="geometry" />
        </mxCell>
        <mxCell id="zAfV5tpTax8Z2rEZmLrc-18" value="action" style="rounded=0;whiteSpace=wrap;html=1;" vertex="1" parent="zAfV5tpTax8Z2rEZmLrc-10">
          <mxGeometry x="360" y="200" width="120" height="40" as="geometry" />
        </mxCell>
        <mxCell id="zAfV5tpTax8Z2rEZmLrc-19" value="date" style="rounded=0;whiteSpace=wrap;html=1;" vertex="1" parent="zAfV5tpTax8Z2rEZmLrc-10">
          <mxGeometry x="200" y="280" width="120" height="40" as="geometry" />
        </mxCell>
        <mxCell id="zAfV5tpTax8Z2rEZmLrc-20" value="time" style="rounded=0;whiteSpace=wrap;html=1;" vertex="1" parent="zAfV5tpTax8Z2rEZmLrc-10">
          <mxGeometry x="40" y="280" width="120" height="40" as="geometry" />
        </mxCell>
        <mxCell id="zAfV5tpTax8Z2rEZmLrc-21" value="actor_username" style="rounded=0;whiteSpace=wrap;html=1;" vertex="1" parent="zAfV5tpTax8Z2rEZmLrc-10">
          <mxGeometry x="40" y="200" width="120" height="40" as="geometry" />
        </mxCell>
        <mxCell id="zAfV5tpTax8Z2rEZmLrc-16" value="actor_username" style="rounded=0;whiteSpace=wrap;html=1;" vertex="1" parent="zAfV5tpTax8Z2rEZmLrc-9">
          <mxGeometry x="40" y="40" width="120" height="40" as="geometry" />
        </mxCell>
        <mxCell id="zAfV5tpTax8Z2rEZmLrc-22" style="edgeStyle=orthogonalEdgeStyle;rounded=0;orthogonalLoop=1;jettySize=auto;html=1;exitX=0;exitY=0.5;exitDx=0;exitDy=0;entryX=1;entryY=0.5;entryDx=0;entryDy=0;endArrow=none;endFill=0;dashed=1;" edge="1" parent="zAfV5tpTax8Z2rEZmLrc-9" source="zAfV5tpTax8Z2rEZmLrc-10" target="zAfV5tpTax8Z2rEZmLrc-10">
          <mxGeometry relative="1" as="geometry">
            <Array as="points">
              <mxPoint x="250" y="180" />
              <mxPoint x="250" y="180" />
            </Array>
          </mxGeometry>
        </mxCell>
        <mxCell id="zAfV5tpTax8Z2rEZmLrc-33" value="Followers Table" style="group" vertex="1" connectable="0" parent="1">
          <mxGeometry x="720" y="280" width="520" height="200" as="geometry" />
        </mxCell>
        <mxCell id="zAfV5tpTax8Z2rEZmLrc-34" value="" style="swimlane;startSize=0;" vertex="1" parent="zAfV5tpTax8Z2rEZmLrc-33">
          <mxGeometry width="520" height="200" as="geometry" />
        </mxCell>
        <mxCell id="zAfV5tpTax8Z2rEZmLrc-35" value="follower_username" style="rounded=0;whiteSpace=wrap;html=1;" vertex="1" parent="zAfV5tpTax8Z2rEZmLrc-34">
          <mxGeometry x="200" y="40" width="120" height="40" as="geometry" />
        </mxCell>
        <mxCell id="zAfV5tpTax8Z2rEZmLrc-47" value="follower_username" style="rounded=0;whiteSpace=wrap;html=1;" vertex="1" parent="zAfV5tpTax8Z2rEZmLrc-34">
          <mxGeometry x="200" y="120" width="120" height="40" as="geometry" />
        </mxCell>
        <mxCell id="zAfV5tpTax8Z2rEZmLrc-48" value="target_username" style="rounded=0;whiteSpace=wrap;html=1;" vertex="1" parent="zAfV5tpTax8Z2rEZmLrc-34">
          <mxGeometry x="40" y="120" width="120" height="40" as="geometry" />
        </mxCell>
        <mxCell id="zAfV5tpTax8Z2rEZmLrc-40" value="target_username" style="rounded=0;whiteSpace=wrap;html=1;" vertex="1" parent="zAfV5tpTax8Z2rEZmLrc-33">
          <mxGeometry x="40" y="40" width="120" height="40" as="geometry" />
        </mxCell>
        <mxCell id="zAfV5tpTax8Z2rEZmLrc-41" style="edgeStyle=orthogonalEdgeStyle;rounded=0;orthogonalLoop=1;jettySize=auto;html=1;exitX=0;exitY=0.5;exitDx=0;exitDy=0;entryX=1;entryY=0.5;entryDx=0;entryDy=0;endArrow=none;endFill=0;dashed=1;" edge="1" parent="zAfV5tpTax8Z2rEZmLrc-33" source="zAfV5tpTax8Z2rEZmLrc-34" target="zAfV5tpTax8Z2rEZmLrc-34">
          <mxGeometry relative="1" as="geometry">
            <Array as="points">
              <mxPoint x="260" y="100" />
              <mxPoint x="260" y="100" />
            </Array>
          </mxGeometry>
        </mxCell>
        <mxCell id="zAfV5tpTax8Z2rEZmLrc-49" value="Following Table" style="group" vertex="1" connectable="0" parent="1">
          <mxGeometry x="720" y="560" width="520" height="200" as="geometry" />
        </mxCell>
        <mxCell id="zAfV5tpTax8Z2rEZmLrc-50" value="" style="swimlane;startSize=0;" vertex="1" parent="zAfV5tpTax8Z2rEZmLrc-49">
          <mxGeometry width="520" height="200" as="geometry" />
        </mxCell>
        <mxCell id="zAfV5tpTax8Z2rEZmLrc-51" value="following_username" style="rounded=0;whiteSpace=wrap;html=1;" vertex="1" parent="zAfV5tpTax8Z2rEZmLrc-50">
          <mxGeometry x="200" y="40" width="120" height="40" as="geometry" />
        </mxCell>
        <mxCell id="zAfV5tpTax8Z2rEZmLrc-52" value="following_username" style="rounded=0;whiteSpace=wrap;html=1;" vertex="1" parent="zAfV5tpTax8Z2rEZmLrc-50">
          <mxGeometry x="200" y="120" width="120" height="40" as="geometry" />
        </mxCell>
        <mxCell id="zAfV5tpTax8Z2rEZmLrc-53" value="target_username" style="rounded=0;whiteSpace=wrap;html=1;" vertex="1" parent="zAfV5tpTax8Z2rEZmLrc-50">
          <mxGeometry x="40" y="120" width="120" height="40" as="geometry" />
        </mxCell>
        <mxCell id="zAfV5tpTax8Z2rEZmLrc-54" value="target_username" style="rounded=0;whiteSpace=wrap;html=1;" vertex="1" parent="zAfV5tpTax8Z2rEZmLrc-49">
          <mxGeometry x="40" y="40" width="120" height="40" as="geometry" />
        </mxCell>
        <mxCell id="zAfV5tpTax8Z2rEZmLrc-55" style="edgeStyle=orthogonalEdgeStyle;rounded=0;orthogonalLoop=1;jettySize=auto;html=1;exitX=0;exitY=0.5;exitDx=0;exitDy=0;entryX=1;entryY=0.5;entryDx=0;entryDy=0;endArrow=none;endFill=0;dashed=1;" edge="1" parent="zAfV5tpTax8Z2rEZmLrc-49" source="zAfV5tpTax8Z2rEZmLrc-50" target="zAfV5tpTax8Z2rEZmLrc-50">
          <mxGeometry relative="1" as="geometry">
            <Array as="points">
              <mxPoint x="260" y="100" />
              <mxPoint x="260" y="100" />
            </Array>
          </mxGeometry>
        </mxCell>
      </root>
    </mxGraphModel>
  </diagram>
</mxfile>
